<?xml version="1.0" ?><svg height="512px" version="1.1" viewBox="0 0 512 512" width="512px" xmlns="http://www.w3.org/2000/svg" xmlns:xlink="http://www.w3.org/1999/xlink"><title/><desc/><defs><polygon id="path-1" points="0.000764179105 508.411765 510.639761 508.411765 510.639761 1.35222353 0.000764179105 1.35222353 0.000764179105 508.411765"/></defs><g fill="none" fill-rule="evenodd" id="SVG" stroke="none" stroke-width="1"><g id="Bowling"><g id="7"><path d="M255.321409,14.9713471 C120.642484,14.9713471 11.4642149,123.384465 11.4642149,257.119524 C11.4642149,390.854582 120.642484,499.2677 255.321409,499.2677 C390.000334,499.2677 499.178603,390.854582 499.178603,257.119524 C499.178603,123.384465 390.000334,14.9713471 255.321409,14.9713471" fill="#4B6CA5" id="Fill-1"/><path d="M395.430591,60.0530529 C421.007666,98.3584647 435.939725,144.274876 435.939725,193.681876 C435.939725,327.416935 326.761457,435.830053 192.082531,435.830053 C142.334472,435.830053 96.0863522,421.002641 57.5182328,395.597229 C101.183427,460.985053 175.935427,504.124171 260.858651,504.124171 C395.537576,504.124171 504.715845,395.711053 504.715845,261.975994 C504.715845,177.640347 461.279904,103.412229 395.430591,60.0530529" fill="#010202" id="Fill-6" opacity="0.3"/><g id="Group-5" transform="translate(0.000000, 2.236012)"><mask fill="white" id="mask-2"><use xlink:href="#path-1"/></mask><g id="Clip-4"/><path d="M255.320645,24.1169294 C127.175451,24.1169294 22.9261373,127.643224 22.9261373,254.882753 C22.9261373,382.129871 127.175451,485.648576 255.320645,485.648576 C383.465839,485.648576 487.715152,382.129871 487.715152,254.882753 C487.715152,127.643224 383.465839,24.1169294 255.320645,24.1169294 M255.320645,508.413282 C114.535928,508.413282 0.000764179105,394.680812 0.000764179105,254.882753 C0.000764179105,115.084694 114.535928,1.35222353 255.320645,1.35222353 C396.105361,1.35222353 510.640525,115.084694 510.640525,254.882753 C510.640525,394.680812 396.105361,508.413282 255.320645,508.413282" fill="#2E2E30" id="Fill-3" mask="url(#mask-2)"/></g><path d="M183.093493,124.798153 C183.093493,138.942624 171.546746,150.408447 157.302448,150.408447 C143.050507,150.408447 131.503761,138.942624 131.503761,124.798153 C131.503761,110.653682 143.050507,99.1878588 157.302448,99.1878588 C171.546746,99.1878588 183.093493,110.653682 183.093493,124.798153" fill="#36527A" id="Fill-8"/><path d="M157.298627,110.5649 C149.397015,110.5649 142.970269,116.946606 142.970269,124.792841 C142.970269,132.646665 149.397015,139.028371 157.298627,139.028371 C165.200239,139.028371 171.634627,132.646665 171.634627,124.792841 C171.634627,116.946606 165.200239,110.5649 157.298627,110.5649 M157.298627,161.793076 C136.757493,161.793076 120.044896,145.197606 120.044896,124.792841 C120.044896,104.395665 136.757493,87.8001941 157.298627,87.8001941 C177.839761,87.8001941 194.56,104.395665 194.56,124.792841 C194.56,145.197606 177.839761,161.793076 157.298627,161.793076" fill="#2E2E30" id="Fill-10"/><path d="M281.116275,177.682841 C281.116275,191.827312 269.569528,203.293135 255.32523,203.293135 C241.07329,203.293135 229.526543,191.827312 229.526543,177.682841 C229.526543,163.538371 241.07329,152.072547 255.32523,152.072547 C269.569528,152.072547 281.116275,163.538371 281.116275,177.682841" fill="#36527A" id="Fill-12"/><path d="M255.320645,163.452624 C247.419033,163.452624 240.992287,169.834329 240.992287,177.680565 C240.992287,185.534388 247.419033,191.916094 255.320645,191.916094 C263.222257,191.916094 269.656645,185.534388 269.656645,177.680565 C269.656645,169.834329 263.222257,163.452624 255.320645,163.452624 M255.320645,214.6808 C234.77951,214.6808 218.066913,198.085329 218.066913,177.680565 C218.066913,157.283388 234.77951,140.687918 255.320645,140.687918 C275.861779,140.687918 292.582018,157.283388 292.582018,177.680565 C292.582018,198.085329 275.861779,214.6808 255.320645,214.6808" fill="#2E2E30" id="Fill-14"/><path d="M183.093493,224.704859 C183.093493,238.849329 171.546746,250.315153 157.302448,250.315153 C143.050507,250.315153 131.503761,238.849329 131.503761,224.704859 C131.503761,210.560388 143.050507,199.094565 157.302448,199.094565 C171.546746,199.094565 183.093493,210.560388 183.093493,224.704859" fill="#36527A" id="Fill-16"/><path d="M157.298627,210.4754 C149.397015,210.4754 142.970269,216.857106 142.970269,224.703341 C142.970269,232.557165 149.397015,238.938871 157.298627,238.938871 C165.200239,238.938871 171.634627,232.557165 171.634627,224.703341 C171.634627,216.857106 165.200239,210.4754 157.298627,210.4754 M157.298627,261.703576 C136.757493,261.703576 120.044896,245.108106 120.044896,224.703341 C120.044896,204.306165 136.757493,187.710694 157.298627,187.710694 C177.839761,187.710694 194.56,204.306165 194.56,224.703341 C194.56,245.108106 177.839761,261.703576 157.298627,261.703576" fill="#2E2E30" id="Fill-18"/></g></g></g></svg>