<?xml version="1.0" ?><!DOCTYPE svg  PUBLIC '-//W3C//DTD SVG 1.1//EN'  'http://www.w3.org/Graphics/SVG/1.1/DTD/svg11.dtd'><svg enable-background="new 0 0 128 128" version="1.1" viewBox="0 0 128 128" xml:space="preserve" xmlns="http://www.w3.org/2000/svg" xmlns:xlink="http://www.w3.org/1999/xlink"><g id="Layer_1"><rect fill="#F4F5F5" height="1520" opacity="0" width="727.938" x="-379.984" y="-351"/></g><g id="Layer_2"><g><circle cx="64" cy="64" fill="#8DC1E8" r="64"/><g><defs><circle cx="64" cy="64" id="SVGID_9_" r="64"/></defs><clipPath id="SVGID_2_"><use overflow="visible" xlink:href="#SVGID_9_"/></clipPath><polygon clip-path="url(#SVGID_2_)" fill="#2186BC" opacity="0.35" points="24.568,91.244 61.812,128 127.5,128 127.5,72.937      102.496,47.731 77.292,43.667    "/></g><g><defs><circle cx="64" cy="64" id="SVGID_11_" r="64"/></defs><clipPath id="SVGID_4_"><use overflow="visible" xlink:href="#SVGID_11_"/></clipPath><path clip-path="url(#SVGID_4_)" d="M88.167,105.5l16.169,16.169L131,89.503l-24.085-24.085     c0,0,2.118,6.935,0,9.238c-2.118,2.303-16.958,10.695-18.201,13.853C87.472,91.667,85.833,103.167,88.167,105.5z" fill="#2186BC" opacity="0.35"/></g><path d="    M83.169,66.541c0,0,19.201-8.577,24.288,1.441S90.628,82.793,87.472,90.47c-3.164,7.697,2.226,13.569,2.226,13.569" fill="none" stroke="#343633" stroke-linecap="round" stroke-linejoin="round" stroke-miterlimit="10" stroke-width="4"/><path d="    M83.169,66.541c0,0,19.201-8.577,24.288,1.441S90.628,82.793,87.472,90.47c-3.164,7.697,2.226,13.569,2.226,13.569" fill="none" opacity="0.42" stroke="#677496" stroke-dasharray="3" stroke-linejoin="round" stroke-miterlimit="10" stroke-width="4"/><path d="M101.453,46.175l-9.152-8.793c-2.491-2.421-6.057-3.158-9.383-2.155L21.564,53.74    c-5.056,1.525-7.876,6.538-6.351,11.593l6.477,21.465c1.525,5.056,6.662,7.719,11.717,6.193L94.762,74.48    c3.326-1.004,5.882-3.614,6.618-7.009L104.116,55C104.815,51.775,103.82,48.476,101.453,46.175z M90.818,58.432    c-2.235,0.674-4.593-0.591-5.267-2.825c-0.674-2.235,0.591-4.593,2.825-5.267c2.235-0.674,4.593,0.591,5.267,2.825    C94.318,55.399,93.053,57.758,90.818,58.432z" fill="#FFF1EB"/><path d="M101.453,46.175l-9.152-8.793c-2.491-2.421-6.057-3.158-9.383-2.155L21.564,53.74    c-5.056,1.525-7.876,6.538-6.35,11.593l6.477,21.465c1.525,5.056,6.662,7.719,11.717,6.193L94.762,74.48    c3.326-1.004,5.882-3.614,6.618-7.009L104.116,55C104.815,51.775,103.82,48.476,101.453,46.175z" fill="none"/><g><defs><path d="M101.453,46.175l-9.152-8.793c-2.491-2.421-6.057-3.158-9.383-2.155L21.564,53.74      c-5.056,1.525-7.876,6.538-6.351,11.593l6.477,21.465c1.525,5.056,6.662,7.719,11.717,6.193L94.762,74.48      c3.326-1.004,5.882-3.614,6.618-7.009L104.116,55C104.815,51.775,103.82,48.476,101.453,46.175z M90.818,58.432      c-2.235,0.674-4.593-0.591-5.267-2.825c-0.674-2.235,0.591-4.593,2.825-5.267c2.235-0.674,4.593,0.591,5.267,2.825      C94.318,55.399,93.053,57.758,90.818,58.432z" id="SVGID_13_"/></defs><clipPath id="SVGID_6_"><use overflow="visible" xlink:href="#SVGID_13_"/></clipPath><polygon clip-path="url(#SVGID_6_)" fill="#E2D5D5" points="31.505,66.226 40.344,75.073 40.605,78.367 52.583,90.333 98.083,77      74.147,52.992 63.953,54.691 62.812,59.812 64.594,67.594 53.083,56.511 49.973,65.194 44.05,59.237    "/></g><path d="M30.56,90.92c-1.131,0-2.182-0.252-3.14-0.75c-0.245-0.127-0.341-0.429-0.213-0.674    c0.128-0.246,0.431-0.34,0.674-0.213c0.814,0.423,1.711,0.637,2.665,0.637c0.276,0,0.477,0.224,0.477,0.5    c0,0.276-0.524,0.5-0.524,0.5v-0.5l0.013,0.5H30.56z M33.529,90.322c-0.215,0-0.413-0.139-0.479-0.355    c-0.08-0.265,0.069-0.543,0.334-0.623l2.879-0.869c0.264-0.08,0.543,0.069,0.623,0.334s-0.069,0.543-0.334,0.623l-2.879,0.869    C33.626,90.315,33.577,90.322,33.529,90.322z M39.287,88.585c-0.215,0-0.413-0.139-0.479-0.355    c-0.08-0.265,0.069-0.543,0.334-0.623l2.879-0.869c0.262-0.08,0.543,0.07,0.623,0.334c0.08,0.265-0.069,0.543-0.334,0.623    l-2.879,0.869C39.384,88.578,39.335,88.585,39.287,88.585z M25.426,88.25c-0.159,0-0.316-0.076-0.413-0.218    c-0.403-0.591-0.716-1.249-0.929-1.956l-0.285-0.943c-0.08-0.264,0.069-0.543,0.334-0.623c0.263-0.082,0.543,0.069,0.623,0.334    l0.285,0.944c0.184,0.609,0.452,1.175,0.798,1.681c0.155,0.228,0.097,0.539-0.131,0.695C25.621,88.222,25.523,88.25,25.426,88.25z     M45.045,86.848c-0.215,0-0.413-0.139-0.479-0.355c-0.08-0.265,0.069-0.543,0.334-0.623L47.779,85    c0.262-0.08,0.543,0.07,0.623,0.334c0.08,0.265-0.069,0.543-0.334,0.623l-2.879,0.869C45.142,86.841,45.093,86.848,45.045,86.848z     M50.803,85.11c-0.215,0-0.413-0.139-0.479-0.355c-0.08-0.265,0.069-0.543,0.334-0.623l2.878-0.869    c0.263-0.079,0.543,0.069,0.623,0.334s-0.069,0.543-0.334,0.623l-2.878,0.869C50.899,85.103,50.851,85.11,50.803,85.11z     M56.56,83.373c-0.215,0-0.413-0.139-0.479-0.355c-0.08-0.265,0.069-0.543,0.334-0.623l2.879-0.869    c0.263-0.082,0.543,0.069,0.623,0.334s-0.069,0.543-0.334,0.623l-2.879,0.869C56.656,83.366,56.607,83.373,56.56,83.373z     M23.409,82.609c-0.215,0-0.413-0.139-0.479-0.355l-0.869-2.879c-0.08-0.264,0.069-0.543,0.334-0.623    c0.263-0.082,0.543,0.069,0.623,0.334l0.869,2.879c0.08,0.264-0.069,0.543-0.334,0.623C23.506,82.602,23.457,82.609,23.409,82.609    z M62.317,81.636c-0.215,0-0.413-0.139-0.479-0.355c-0.08-0.265,0.069-0.543,0.334-0.623l2.879-0.869    c0.263-0.081,0.543,0.069,0.623,0.334s-0.069,0.543-0.334,0.623l-2.879,0.869C62.414,81.629,62.365,81.636,62.317,81.636z     M68.075,79.898c-0.215,0-0.413-0.139-0.479-0.355c-0.08-0.265,0.069-0.543,0.334-0.623l2.879-0.869    c0.263-0.081,0.543,0.069,0.623,0.334s-0.069,0.543-0.334,0.623l-2.879,0.869C68.172,79.892,68.123,79.898,68.075,79.898z     M73.833,78.161c-0.215,0-0.413-0.139-0.479-0.355c-0.08-0.265,0.069-0.543,0.334-0.623l2.879-0.869    c0.263-0.081,0.543,0.069,0.623,0.334s-0.069,0.543-0.334,0.623l-2.879,0.869C73.93,78.154,73.881,78.161,73.833,78.161z     M21.672,76.851c-0.215,0-0.413-0.139-0.479-0.355l-0.869-2.879c-0.08-0.264,0.069-0.543,0.334-0.623    c0.264-0.082,0.543,0.069,0.623,0.334l0.869,2.879c0.08,0.264-0.069,0.543-0.334,0.623C21.769,76.844,21.72,76.851,21.672,76.851z     M79.591,76.424c-0.215,0-0.413-0.139-0.479-0.355c-0.08-0.265,0.069-0.543,0.334-0.623l2.879-0.869    c0.263-0.081,0.543,0.07,0.623,0.334c0.08,0.265-0.069,0.543-0.334,0.623l-2.879,0.869C79.687,76.417,79.639,76.424,79.591,76.424    z M85.349,74.686c-0.215,0-0.413-0.139-0.479-0.355c-0.08-0.265,0.069-0.543,0.334-0.623l2.879-0.869    c0.263-0.08,0.543,0.07,0.623,0.334c0.08,0.265-0.069,0.543-0.334,0.623l-2.879,0.869C85.445,74.68,85.396,74.686,85.349,74.686z     M91.106,72.949c-0.215,0-0.413-0.139-0.479-0.355c-0.08-0.265,0.069-0.543,0.334-0.623l2.789-0.842    c0.263-0.082,0.586,0.054,0.667,0.317s-0.02,0.527-0.281,0.61c-0.002,0-0.093,0.029-0.095,0.029l-2.791,0.842    C91.203,72.942,91.154,72.949,91.106,72.949z M19.935,71.093c-0.215,0-0.413-0.139-0.479-0.355l-0.869-2.878    c-0.08-0.264,0.069-0.543,0.334-0.623c0.264-0.08,0.543,0.07,0.623,0.334l0.869,2.878c0.08,0.264-0.069,0.543-0.334,0.623    C20.031,71.086,19.982,71.093,19.935,71.093z M96.574,70.599c-0.135,0-0.27-0.054-0.368-0.162    c-0.187-0.203-0.174-0.52,0.029-0.707c0.692-0.637,1.203-1.403,1.517-2.279c0.094-0.26,0.379-0.396,0.64-0.302    c0.26,0.093,0.395,0.379,0.302,0.639c-0.369,1.03-0.968,1.931-1.78,2.678C96.816,70.555,96.695,70.599,96.574,70.599z     M18.197,65.336c-0.215,0-0.413-0.139-0.479-0.355l-0.111-0.369c-0.203-0.672-0.306-1.356-0.306-2.034    c0-0.255,0.015-0.508,0.043-0.759c0.031-0.275,0.284-0.47,0.554-0.441c0.274,0.031,0.472,0.279,0.44,0.553    c-0.024,0.214-0.037,0.43-0.037,0.647c0,0.58,0.089,1.167,0.263,1.745l0.111,0.369c0.08,0.265-0.069,0.543-0.334,0.623    C18.294,65.329,18.245,65.336,18.197,65.336z M98.917,65.196c-0.035,0-0.071-0.004-0.107-0.012    c-0.27-0.059-0.44-0.326-0.381-0.595l0.645-2.938c0.059-0.27,0.322-0.439,0.596-0.381c0.27,0.059,0.44,0.326,0.381,0.595    l-0.645,2.938C99.354,65.037,99.147,65.196,98.917,65.196z M18.903,59.596c-0.101,0-0.201-0.03-0.288-0.092    c-0.226-0.159-0.279-0.471-0.12-0.697c0.62-0.878,1.435-1.589,2.42-2.111c0.246-0.129,0.546-0.037,0.676,0.208    s0.037,0.547-0.207,0.676c-0.846,0.448-1.543,1.055-2.072,1.805C19.214,59.522,19.06,59.596,18.903,59.596z M100.206,59.321    c-0.035,0-0.071-0.004-0.107-0.012c-0.27-0.059-0.44-0.326-0.381-0.595l0.645-2.937c0.059-0.27,0.324-0.438,0.596-0.381    c0.27,0.059,0.44,0.326,0.381,0.596l-0.645,2.937C100.644,59.162,100.437,59.321,100.206,59.321z M23.981,56.644    c-0.215,0-0.413-0.139-0.479-0.355c-0.08-0.265,0.069-0.543,0.334-0.623l2.879-0.869c0.264-0.081,0.543,0.069,0.623,0.334    s-0.069,0.543-0.334,0.623l-2.879,0.869C24.078,56.638,24.029,56.644,23.981,56.644z M29.739,54.907    c-0.215,0-0.413-0.139-0.479-0.355c-0.08-0.265,0.069-0.543,0.334-0.623l2.879-0.869c0.264-0.081,0.543,0.069,0.623,0.334    s-0.069,0.543-0.334,0.623l-2.879,0.869C29.836,54.9,29.787,54.907,29.739,54.907z M101.333,53c-0.274,0-0.498-0.01-0.5-0.285    c-0.006-0.926-0.231-1.744-0.652-2.564c-0.126-0.246-0.028-0.494,0.218-0.62c0.243-0.125,0.547-0.003,0.673,0.243    c0.491,0.959,0.755,1.839,0.762,2.92c0.002,0.276-0.221,0.305-0.497,0.305C101.335,53,101.334,53,101.333,53z M35.497,53.17    c-0.215,0-0.413-0.139-0.479-0.355c-0.08-0.265,0.069-0.543,0.334-0.623l2.879-0.869c0.264-0.081,0.543,0.069,0.623,0.334    S38.785,52.2,38.52,52.28l-2.879,0.869C35.594,53.163,35.545,53.17,35.497,53.17z M41.255,51.433    c-0.215,0-0.413-0.139-0.479-0.355c-0.08-0.264,0.069-0.543,0.334-0.623l2.879-0.869c0.264-0.08,0.543,0.07,0.623,0.334    s-0.069,0.543-0.334,0.623l-2.879,0.869C41.352,51.426,41.303,51.433,41.255,51.433z M47.013,49.695    c-0.215,0-0.413-0.139-0.479-0.355c-0.08-0.265,0.069-0.543,0.334-0.623l2.879-0.869c0.264-0.079,0.543,0.07,0.623,0.334    c0.08,0.265-0.069,0.543-0.334,0.623l-2.879,0.869C47.109,49.688,47.061,49.695,47.013,49.695z M98.73,48.219    c-0.125,0-0.249-0.046-0.347-0.139l-2.169-2.083c-0.199-0.191-0.205-0.508-0.014-0.707c0.191-0.2,0.508-0.204,0.707-0.015    l2.169,2.083c0.199,0.191,0.205,0.508,0.014,0.707C98.993,48.168,98.861,48.219,98.73,48.219z M52.77,47.957    c-0.215,0-0.413-0.139-0.479-0.355c-0.08-0.265,0.069-0.543,0.334-0.623l2.879-0.869c0.264-0.082,0.543,0.069,0.623,0.334    s-0.069,0.543-0.334,0.623l-2.879,0.869C52.867,47.951,52.818,47.957,52.77,47.957z M58.528,46.22    c-0.215,0-0.413-0.139-0.479-0.355c-0.08-0.265,0.069-0.543,0.334-0.623l2.879-0.869c0.264-0.082,0.543,0.069,0.623,0.334    s-0.069,0.543-0.334,0.623l-2.879,0.869C58.625,46.213,58.576,46.22,58.528,46.22z M64.285,44.483    c-0.215,0-0.413-0.139-0.479-0.355c-0.08-0.265,0.069-0.543,0.334-0.623l2.879-0.869c0.263-0.081,0.543,0.069,0.623,0.334    s-0.069,0.543-0.334,0.623l-2.879,0.869C64.382,44.476,64.333,44.483,64.285,44.483z M94.394,44.053    c-0.125,0-0.249-0.046-0.347-0.14l-2.169-2.083c-0.199-0.191-0.205-0.508-0.014-0.707c0.191-0.2,0.508-0.205,0.707-0.014    l2.169,2.083c0.199,0.191,0.205,0.508,0.014,0.707C94.656,44.001,94.524,44.053,94.394,44.053z M70.043,42.746    c-0.215,0-0.413-0.139-0.479-0.355c-0.08-0.265,0.069-0.543,0.334-0.623l2.879-0.869c0.263-0.081,0.543,0.069,0.623,0.334    s-0.069,0.543-0.334,0.623l-2.879,0.869C70.14,42.739,70.091,42.746,70.043,42.746z M75.801,41.008    c-0.215,0-0.413-0.139-0.479-0.355c-0.08-0.265,0.069-0.543,0.334-0.623l2.879-0.869c0.263-0.081,0.543,0.069,0.623,0.334    s-0.069,0.543-0.334,0.623l-2.879,0.869C75.897,41.001,75.849,41.008,75.801,41.008z M90.056,39.888    c-0.12,0-0.24-0.043-0.336-0.129c-0.678-0.614-1.512-1.059-2.413-1.286c-0.268-0.067-0.431-0.339-0.362-0.607    c0.067-0.268,0.336-0.431,0.606-0.363c1.06,0.267,2.042,0.791,2.841,1.515c0.204,0.186,0.22,0.502,0.034,0.707    C90.327,39.833,90.191,39.888,90.056,39.888z M81.559,39.271c-0.215,0-0.413-0.139-0.479-0.355    c-0.08-0.265,0.069-0.543,0.334-0.623l2.226-0.671c0.235-0.071,0.471-0.13,0.706-0.178c0.264-0.053,0.534,0.119,0.59,0.39    c0.055,0.271-0.12,0.535-0.391,0.589c-0.206,0.042-0.412,0.094-0.617,0.156l-2.225,0.671    C81.655,39.264,81.606,39.271,81.559,39.271z" fill="#F54F33"/><g><path d="M44.05,59.237l0.886,2.936l-4.961,1.497l4.117,13.645l-3.487,1.052l-4.117-13.645l-4.983,1.504     l-0.886-2.936L44.05,59.237z" fill="#38559D"/><path d="M49.163,57.694l3.92-1.183l10.869,14.811l-3.757,1.134l-2.123-3.078l-6.104,1.842l-0.096,3.748     l-3.624,1.093L49.163,57.694z M52.047,68.078l4.246-1.281l-4.063-5.892L52.047,68.078z" fill="#38559D"/><path d="M72.437,56.317c-0.604-1.053-1.484-1.651-2.64-1.793c-0.645-0.076-1.316-0.008-2.013,0.202     c-1.335,0.403-2.28,1.237-2.835,2.503s-0.527,2.909,0.082,4.929c0.614,2.036,1.514,3.337,2.699,3.902     c1.185,0.565,2.37,0.669,3.555,0.311c1.162-0.351,2.014-0.972,2.555-1.862c0.541-0.891,0.735-1.903,0.581-3.036l-3.836,1.157     l-0.835-2.767l6.907-2.084l2.685,8.898l-2.295,0.692l-0.973-1.965c-0.431,0.985-0.864,1.719-1.3,2.2     c-0.746,0.836-1.786,1.455-3.121,1.858c-2.197,0.663-4.227,0.445-6.088-0.652c-1.924-1.088-3.286-2.958-4.086-5.611     c-0.81-2.683-0.72-5.057,0.269-7.122c0.989-2.065,2.698-3.463,5.128-4.196c2.107-0.636,3.961-0.612,5.562,0.07     s2.736,1.795,3.406,3.335L72.437,56.317z" fill="#38559D"/></g><g><defs><circle cx="64" cy="64" id="SVGID_15_" r="64"/></defs><clipPath id="SVGID_8_"><use overflow="visible" xlink:href="#SVGID_15_"/></clipPath><g clip-path="url(#SVGID_8_)"><path d="      M89.814,53.749c0,0-16.084-13.549-9.281-22.491s20.662,8.699,28.947,8.196c8.306-0.504,11.245-7.913,11.245-7.913" fill="none" stroke="#343633" stroke-linecap="round" stroke-linejoin="round" stroke-miterlimit="10" stroke-width="4"/><path d="      M89.814,53.749c0,0-16.084-13.549-9.281-22.491s20.662,8.699,28.947,8.196c8.306-0.504,11.245-7.913,11.245-7.913" fill="none" opacity="0.42" stroke="#677496" stroke-dasharray="3" stroke-linejoin="round" stroke-miterlimit="10" stroke-width="4"/></g></g></g></g></svg>